<?xml version="1.0" encoding="utf-8"?><!DOCTYPE svg ><svg width="1000px" height="1000px" viewBox="500 500 500 500" preserveAspectRatio="none" xmlns="http://www.w3.org/2000/svg"><filter id="blur" x="-16%" y="-16%" width="132%" height="132%"><feGaussianBlur in="SourceGraphic" stdDeviation="8"/></filter><rect style="fill: rgb(219,219,193);" width="1000" height="1000"/><path filter="url(#blur)" d="M 0.46432062561097 0.16715542521992 C 0.58553274682309 0.045943304007805, 999.57086999022 0.24828934506354, 999.69599217986 0.37341153470186 C 999.8211143695 0.49853372434017,  999.76246334311 999.42228739003, 999.66568914956 999.51906158358 C 999.56891495601 999.61583577713, 0.24633431085044 999.59824046921, 0.18279569892473 999.53470185728 C 0.11925708699902 999.47116324536, 0.34310850439885 0.28836754643204, 0.46432062561097 0.16715542521992"  style="fill:rgb(215,224,194);"/><path filter="url(#blur)" d="M 1.3929618768329 0.50146627565981 C 1.7565982404692 0.13782991202345, 998.71260997067 0.74486803519061, 999.08797653959 1.1202346041056 C 999.4633431085 1.4956011730205,  999.28739002933 998.26686217009, 998.99706744868 998.55718475073 C 998.70674486804 998.84750733138, 0.73900293255132 998.79472140762, 0.54838709677419 998.60410557185 C 0.35777126099706 998.41348973607, 1.0293255131965 0.86510263929617, 1.3929618768329 0.50146627565981"  style="fill:rgb(210,228,196);"/><path filter="url(#blur)" d="M 3.2502443792767 1.1700879765396 C 4.0987292277615 0.32160312805473, 996.99608993157 1.7380254154448, 997.87194525904 2.613880742913 C 998.74780058651 3.4897360703812,  998.33724340176 995.95601173021, 997.65982404692 996.63343108504 C 996.98240469208 997.31085043988, 1.7243401759531 997.18768328446, 1.2795698924731 996.74291300098 C 0.83479960899315 996.2981427175, 2.4017595307918 2.0185728250244, 3.2502443792767 1.1700879765396"  style="fill:rgb(203,232,198);"/><path filter="url(#blur)" d="M 6.9648093841642 2.5073313782991 C 8.7829912023461 0.68914956011729, 993.56304985337 3.7243401759531, 995.43988269795 5.6011730205279 C 997.31671554252 7.4780058651026,  996.43695014663 991.33431085044, 994.9853372434 992.78592375367 C 993.53372434018 994.23753665689, 3.6950146627566 993.97360703812, 2.741935483871 993.02052785924 C 1.7888563049853 992.06744868035, 5.1466275659824 4.3255131964809, 6.9648093841642 2.5073313782991"  style="fill:rgb(201,236,205);"/><path filter="url(#blur)" d="M 14.393939393939 5.1818181818182 C 18.151515151515 1.4242424242424, 986.69696969697 7.6969696969697, 990.57575757576 11.575757575758 C 994.45454545455 15.454545454545,  992.63636363636 982.09090909091, 989.63636363636 985.09090909091 C 986.63636363636 988.09090909091, 7.6363636363636 987.54545454545, 5.6666666666667 985.57575757576 C 3.6969696969697 983.60606060606, 10.636363636364 8.9393939393939, 14.393939393939 5.1818181818182"  style="fill:rgb(203,239,218);"/><path filter="url(#blur)" d="M 29.25219941349 10.530791788856 C 36.888563049853 2.8944281524927, 972.96480938416 15.642228739003, 980.84750733138 23.524926686217 C 988.73020527859 31.407624633431,  985.03519061584 963.60410557185, 978.93841642229 969.7008797654 C 972.84164222874 975.79765395894, 15.519061583578 974.68914956012, 11.516129032258 970.6862170088 C 7.5131964809384 966.68328445748, 21.615835777126 18.16715542522, 29.25219941349 10.530791788856"  style="fill:rgb(207,242,232);"/><path filter="url(#blur)" d="M 58.96871945259 21.228739002933 C 74.36265884653 5.8347996089931, 945.50048875855 31.532746823069, 961.39100684262 47.423264907136 C 977.28152492669 63.313782991202,  969.83284457478 926.63049853372, 957.54252199413 938.92082111437 C 945.25219941349 951.21114369501, 31.284457478006 948.97653958944, 23.215053763441 940.90713587488 C 15.145650048876 932.83773216031, 43.574780058651 36.622678396872, 58.96871945259 21.228739002933"  style="fill:rgb(210,245,244);"/><path filter="url(#blur)" d="M 118.40175953079 42.624633431085 C 149.31085043988 11.715542521994, 890.57184750733 63.313782991202, 922.4780058651 95.219941348974 C 954.38416422287 127.12609970674,  939.42815249267 852.68328445748, 914.75073313783 877.36070381232 C 890.07331378299 902.03812316716, 62.815249266862 897.55131964809, 46.612903225806 881.34897360704 C 30.410557184751 865.14662756598, 87.492668621701 73.533724340176, 118.40175953079 42.624633431085"  style="fill:rgb(214,238,247);"/><path filter="url(#blur)" d="M 237.26783968719 85.41642228739 C 299.20723362659 23.477028347996, 780.71456500489 126.87585532747, 844.65200391007 190.81329423265 C 908.58944281525 254.75073313783,  878.61876832845 704.78885630499, 829.16715542522 754.24046920821 C 779.71554252199 803.69208211144, 125.87683284457 794.7008797654, 93.408602150538 762.23264907136 C 60.9403714565 729.76441837732, 175.3284457478 147.35581622678, 237.26783968719 85.41642228739"  style="fill:rgb(218,232,249);"/><path filter="url(#blur)" d="M 475 171 C 599 47, 561 254, 689 382 C 817 510,  757 409, 658 508 C 559 607, 252 589, 187 524 C 122 459, 351 295, 475 171"  style="fill: rgb(222,227,251);"/></svg>